# xmcd
#
# Track frame offsets:
#	150
#	15910
#	35585
#	53184
#	74358
#	92583
#	111817
#	129401
#	149237
#	171822
#	190680
#	217956
#	332969
#
# Disc length: 4443 seconds
#
# Revision: 1
# Processed by: cddbd v1.5.1PL2 Copyright (c) Steve Scherf et al.
# Submitted via: audiograbber 1.83.01
#
DISCID=ba11590d
DTITLE=Chris Cagle - Anywhere But Here
DYEAR=1900
DGENRE=
TTITLE0=You Might Want To Think About It
TTITLE1=Wal-Mart Parking Lot
TTITLE2=Miss Me Baby
TTITLE3=Maria
TTITLE4=Anywhere But Here
TTITLE5=You Still Do That To Me
TTITLE6=Hey Ya'll
TTITLE7=I Was Made For You
TTITLE8=Wanted Dead Or Alive
TTITLE9=When I Get There
TTITLE10=I'd Find You
TTITLE11=Data Track
TTITLE12=Additional
EXTD=
EXTT0=
EXTT1=
EXTT2=
EXTT3=
EXTT4=
EXTT5=
EXTT6=
EXTT7=
EXTT8=
EXTT9=
EXTT10=
EXTT11=
EXTT12=
PLAYORDER=
